<?xml version="1.0"?>
<svg width="270" height="270" xmlns="http://www.w3.org/2000/svg" xmlns:svg="http://www.w3.org/2000/svg" xmlns:xlink="http://www.w3.org/1999/xlink">
 <defs>
  <filter color-interpolation-filters="sRGB" filterUnits="userSpaceOnUse" height="270" id="A" width="270"/>
  <linearGradient id="svg_4" x1="0" x2="1" y1="0" y2="1">
   <stop stop-color="#cb5eee"/>
   <stop offset="1" stop-color="#8ff20e" stop-opacity="0.98"/>
  </linearGradient>
  <symbol id="svg_7" viewBox="0 0 1131.93 283.13" xmlns="http://www.w3.org/2000/svg">
   <defs>
    <style>.cls-1{fill:#fff;}</style>
   </defs>
   <g>
    <path class="cls-1" d="m243.1,105.09c6.99,0 13.53,1.75 18.77,4.69l0,9.57c-4.97,-3.68 -11.78,-6.17 -18.86,-6.17c-15.18,0 -25.85,11.41 -25.85,26.22s10.67,26.22 26.59,26.22c7.36,0 13.89,-2.48 19.14,-6.72l0,9.66c-5.34,3.4 -12.61,5.15 -19.6,5.15c-20.24,0 -34.87,-14.63 -34.87,-34.14s13.8,-34.5 34.69,-34.5l-0.01,0.02z"/>
    <path class="cls-1" d="m274.29,106.1l18.03,0c6.72,0 13.16,0.28 18.59,3.31c5.52,3.04 9.2,8.19 9.2,15.55s-3.5,12.61 -8.56,15.64c-2.39,1.47 -4.88,2.3 -7.64,2.76l21.35,29.35l-10.58,0l-20.33,-28.52l-11.32,0l0,28.52l-8.74,0l0,-66.61zm20.06,30.92c5.89,0 10.03,-0.74 13.06,-3.04c2.48,-1.84 3.96,-4.6 3.96,-8.28c0,-4.23 -1.93,-7.54 -5.43,-9.48c-3.59,-1.93 -7.82,-2.21 -14.26,-2.21l-8.65,0l0,23l11.32,0l0,0.01z"/>
    <path class="cls-1" d="m359.68,105.09c19.32,0 33.86,15 33.86,34.32s-14.54,34.32 -33.86,34.32s-33.86,-15 -33.86,-34.32s14.54,-34.32 33.86,-34.32zm0,60.54c14.54,0 25.12,-11.59 25.12,-26.22s-10.58,-26.22 -25.12,-26.22s-25.12,11.59 -25.12,26.22s10.58,26.22 25.12,26.22z"/>
    <path class="cls-1" d="m399.99,158.92c6.26,4.79 14.26,6.81 20.15,6.81c7.91,0 13.53,-3.59 13.53,-10.86c0,-8.56 -7.82,-10.03 -16.56,-12.51c-9.39,-2.67 -18.49,-6.53 -18.49,-18.68s8.56,-18.59 21.53,-18.59c6.26,0 13.8,1.56 19.14,4.97l0,9.2c-6.07,-4.23 -13.62,-6.17 -19.32,-6.17c-7.45,0 -12.7,3.22 -12.7,10.03c0,8.28 7.73,9.66 15.83,11.96c9.66,2.76 19.23,6.62 19.23,19.32s-8.93,19.32 -22.27,19.32c-6.44,0 -14.26,-1.75 -20.06,-5.24l0,-9.57l-0.01,0.01z"/>
    <path class="cls-1" d="m451.24,158.92c6.26,4.79 14.26,6.81 20.15,6.81c7.91,0 13.53,-3.59 13.53,-10.86c0,-8.56 -7.82,-10.03 -16.56,-12.51c-9.38,-2.67 -18.49,-6.53 -18.49,-18.68s8.56,-18.59 21.53,-18.59c6.26,0 13.8,1.56 19.14,4.97l0,9.2c-6.07,-4.23 -13.62,-6.17 -19.32,-6.17c-7.45,0 -12.7,3.22 -12.7,10.03c0,8.28 7.73,9.66 15.83,11.96c9.66,2.76 19.23,6.62 19.23,19.32s-8.92,19.32 -22.27,19.32c-6.44,0 -14.26,-1.75 -20.06,-5.24l0,-9.57l-0.01,0.01z"/>
    <path class="cls-1" d="m497.83,106.1l9.39,0l14.17,37.36c2.21,5.8 4.33,11.5 6.53,17.67l0.18,0c2.21,-6.07 4.42,-11.96 6.72,-17.94l14.26,-37.08l8.93,0l-25.58,66.62l-8.92,0l-25.67,-66.62l-0.01,-0.01z"/>
    <path class="cls-1" d="m580.55,106.1l8.37,0l27.51,66.62l-9.38,0l-7.45,-18.59l-30,0l-7.54,18.59l-8.93,0l27.42,-66.62zm-7.91,40.39l23.92,0l-5.43,-13.8c-2.12,-5.34 -4.33,-11.04 -6.35,-16.47l-0.18,0c-2.03,5.43 -4.23,11.04 -6.53,16.75l-5.43,13.53l0,-0.01z"/>
    <path class="cls-1" d="m624.67,106.1l8.74,0l0,58.7l31.47,0l0,7.91l-40.21,0l0,-66.61z"/>
    <path class="cls-1" d="m671.19,141.34l0,-35.24l8.74,0l0,34.32c0,8.19 0.55,13.34 2.58,17.21c2.3,4.32 7.08,8 15.83,8c8.1,0 13.07,-3.13 15.64,-8c2.12,-3.96 2.48,-9.29 2.48,-16.84l0,-34.69l8.46,0l0,34.23c0,9.66 -0.55,17.11 -4.42,23c-4.23,6.44 -12.24,10.4 -22.54,10.4s-18.22,-4.05 -22.36,-10.4c-3.86,-5.98 -4.42,-13.71 -4.42,-21.99l0.01,0z"/>
    <path class="cls-1" d="m739.99,106.1l38.46,0l0,7.91l-29.72,0l0,20.24l26.04,0l0,7.64l-26.04,0l0,22.91l30.55,0l0,7.91l-39.29,0l0,-66.61z"/>
   </g>
   <g>
    <path class="cls-1" d="m863.44,168.95c-5.24,3.13 -11.96,4.78 -18.95,4.78c-20.52,0 -34.78,-14.91 -34.78,-34.23s13.71,-34.41 34.69,-34.41c6.72,0 12.7,1.66 17.85,4.23l0,6.26c-4.88,-3.22 -11.13,-5.24 -17.85,-5.24c-17.39,0 -29.08,12.79 -29.08,29.08s11.69,29.08 29.44,29.08c6.99,0 13.43,-2.12 18.68,-5.8l0,6.26l0,-0.01z"/>
    <path class="cls-1" d="m874.62,102.42l5.43,0l0,31.38l0.18,0.09c4.51,-4.23 10.4,-7.45 17.39,-7.45c5.06,0 8.93,1.75 11.59,4.6c2.76,2.94 4.05,6.81 4.05,13.53l0,28.16l-5.43,0l0,-27.14c0,-5.7 -0.83,-8.65 -2.94,-10.86c-1.93,-2.12 -4.6,-3.22 -8.19,-3.22c-6.35,0 -12.15,3.4 -16.65,8.1l0,33.12l-5.43,0l0,-70.31z"/>
    <path class="cls-1" d="m955.3,168.12c-3.4,2.94 -8.93,5.61 -15.09,5.61c-3.87,0 -7.73,-0.92 -10.67,-3.13c-2.94,-2.21 -4.69,-5.52 -4.69,-9.75c0,-4.79 2.21,-8.19 5.7,-10.49c3.41,-2.21 8.01,-3.04 12.42,-3.04c4.14,0 7.91,0.64 11.69,1.66l0,-5.25c0,-4.42 -0.83,-7.27 -3.31,-9.48c-2.12,-1.84 -5.24,-2.85 -9.29,-2.85c-5.34,0 -10.21,1.75 -13.89,4.42l0,-5.43c3.68,-2.3 8.74,-4.05 14.45,-4.05s9.84,1.38 12.88,3.96s4.6,6.62 4.6,12.15l0,19.6c0,3.86 0.92,6.72 4.6,6.72c1.1,0 2.12,-0.28 2.94,-0.74l0,4.69c-1.01,0.46 -2.39,0.74 -3.96,0.74c-3.87,0 -6.9,-1.84 -8.19,-5.34l-0.18,0l-0.01,0zm-0.64,-14.81c-3.5,-1.01 -7.54,-1.66 -11.22,-1.66c-6.44,0 -13.07,2.02 -13.07,8.74c0,5.89 5.06,8.46 10.58,8.46c5.15,0 10.12,-2.21 13.71,-5.34l0,-10.21l0,0.01z"/>
    <path class="cls-1" d="m979.98,115.86c-2.3,0 -4.14,-1.84 -4.14,-4.23s1.84,-4.14 4.23,-4.14s4.14,1.84 4.14,4.23s-1.84,4.14 -4.23,4.14zm-2.67,11.59l5.43,0l0,45.27l-5.43,0l0,-45.27z"/>
    <path class="cls-1" d="m998.14,127.45l5.43,0l0,6.35l0.18,0.09c4.51,-4.14 10.4,-7.45 17.39,-7.45c5.06,0 8.92,1.75 11.59,4.6c2.76,2.94 4.05,6.81 4.05,13.53l0,28.16l-5.43,0l0,-27.14c0,-5.43 -0.83,-8.65 -2.85,-10.86c-2.02,-2.21 -5.06,-3.22 -8.46,-3.22c-6.16,0 -12.05,3.4 -16.47,8.1l0,33.12l-5.43,0l0,-45.27l0,-0.01z"/>
   </g>
   <g>
    <polygon class="cls-1" points="98.47 146.8 105.94 151.11 105.94 104.41 131.46 89.69 123.98 85.38 98.47 100.1 98.47 146.8"/>
    <polygon class="cls-1" points="85.02 154.18 110.54 168.9 118.02 164.59 92.49 149.86 92.49 103.54 85.02 107.85 85.02 154.18"/>
    <polygon class="cls-1" points="116.52 173.22 124 177.54 124 177.53 162.15 155.53 162.15 146.9 162.12 146.92 158.88 148.79 157.01 149.86 141.44 158.84 131.47 164.59 124 168.9 116.52 173.22"/>
    <polygon class="cls-1" points="162.14 139.43 162.14 124.47 162.15 124.46 137.04 109.21 137.04 109.22 129.58 113.53 154.66 128.79 154.67 128.78 154.67 143.74 162.14 139.43"/>
    <polygon class="cls-1" points="177.07 120.59 177.07 162.94 124.15 193.66 85.03 170.83 85.03 162.21 124.15 185.04 169.59 158.51 169.59 125.17 177.07 120.59"/>
    <polygon class="cls-1" points="177.07 155.52 177.07 154.32 169.58 158.51 169.58 159.84 177.07 155.52"/>
    <polygon class="cls-1" points="112.33 116.55 137.86 101.82 168.51 119.49 175.98 115.18 175.96 115.17 175.97 115.17 168.51 110.87 168.51 110.88 137.86 93.19 112.33 107.92 112.33 116.55"/>
   </g>
  </symbol>
 </defs>

 <g class="layer">
  <title>Layer 1</title>
  <path d="m-1,-1l270,0l0,270l-270,0l0,-270z" fill="url(#svg_4)" id="svg_1"/>
  <text fill="#fff" filter="url(#A)" font-family="Plus Jakarta Sans,DejaVu Sans,Noto Color Emoji,Apple Color Emoji,sans-serif" font-size="27" font-weight="bold" id="svg_3" x="32.5" y="231">
  </text>
 </g>
</svg>